<svg width="24" height="22" viewBox="0 0 24 22" fill="none" xmlns="http://www.w3.org/2000/svg">
<path d="M12.0006 18.1371H3.31024C2.28415 18.1371 1.44974 17.3027 1.44974 16.2766V4.4056C1.44974 3.37951 2.28415 2.5451 3.31024 2.5451H5.0596V2.98325C5.0596 3.38354 5.38418 3.70812 5.78447 3.70812C6.18476 3.70812 6.50934 3.38354 6.50934 2.98325V2.5451H15.1788V2.98325C15.1788 3.38354 15.5034 3.70812 15.9037 3.70812C16.304 3.70812 16.6285 3.38354 16.6285 2.98325V2.5451H18.3714C19.3967 2.5451 20.2319 3.37951 20.2319 4.4056V9.5844C20.2319 9.98469 20.5565 10.3093 20.9568 10.3093C21.3571 10.3093 21.6817 9.98469 21.6817 9.5844V4.4056C21.6817 2.58054 20.1965 1.09536 18.3714 1.09536H16.6285V0.724871C16.6285 0.324581 16.304 0 15.9037 0C15.5034 0 15.1788 0.324581 15.1788 0.724871V1.09536H6.50934V0.724871C6.50934 0.324581 6.18476 0 5.78447 0C5.38418 0 5.0596 0.324581 5.0596 0.724871V1.09536H3.31024C1.48518 1.09536 0 2.58054 0 4.4056V16.2774C0 18.1032 1.48518 19.5876 3.31024 19.5876H12.0006C12.4009 19.5876 12.7255 19.263 12.7255 18.8627C12.7255 18.4625 12.4009 18.1371 12.0006 18.1371Z" fill="#6B7280"/>
<path d="M5.6315 7.80664C5.16919 7.80664 4.79468 8.18116 4.79468 8.64346C4.79468 9.10577 5.16919 9.48029 5.6315 9.48029C6.09381 9.48029 6.46832 9.10577 6.46832 8.64346C6.46832 8.18116 6.09381 7.80664 5.6315 7.80664Z" fill="#6B7280"/>
<path d="M10.8416 7.80664C10.3793 7.80664 10.0048 8.18116 10.0048 8.64346C10.0048 9.10577 10.3793 9.48029 10.8416 9.48029C11.3039 9.48029 11.6784 9.10577 11.6784 8.64346C11.6784 8.18116 11.3031 7.80664 10.8416 7.80664Z" fill="#6B7280"/>
<path d="M15.2147 8.64346C15.2147 9.10577 15.5892 9.48029 16.0515 9.48029C16.5139 9.48029 16.8884 9.10577 16.8884 8.64346C16.8884 8.18116 16.5139 7.80664 16.0515 7.80664C15.5892 7.80664 15.2147 8.18116 15.2147 8.64346Z" fill="#6B7280"/>
<path d="M5.6315 12.3665C5.16919 12.3665 4.79468 12.741 4.79468 13.2033C4.79468 13.6656 5.16919 14.0401 5.6315 14.0401C6.09381 14.0401 6.46832 13.6656 6.46832 13.2033C6.46832 12.741 6.09381 12.3665 5.6315 12.3665Z" fill="#6B7280"/>
<path d="M10.8416 12.3665C10.3793 12.3665 10.0048 12.741 10.0048 13.2033C10.0048 13.6656 10.3793 14.0401 10.8416 14.0401C11.3039 14.0401 11.6784 13.6656 11.6784 13.2033C11.6784 12.741 11.3031 12.3665 10.8416 12.3665Z" fill="#6B7280"/>
<path d="M18.8502 11.368C16.0112 11.368 13.7004 13.678 13.7004 16.517C13.7004 19.3553 16.0104 21.666 18.8502 21.666C21.6901 21.666 24 19.3561 24 16.517C23.9992 13.6772 21.6893 11.368 18.8502 11.368ZM18.8502 20.2147C16.8109 20.2147 15.151 18.5555 15.151 16.5162C15.151 14.4769 16.8109 12.817 18.8502 12.817C20.8895 12.817 22.5495 14.4769 22.5495 16.5162C22.5495 18.5555 20.8895 20.2147 18.8502 20.2147Z" fill="#6B7280"/>
<path d="M19.9032 15.1988L18.3149 16.4786L17.9194 15.9736C17.6714 15.6587 17.2179 15.6039 16.9014 15.8512C16.5865 16.0985 16.5317 16.5535 16.779 16.8692L17.6279 17.9517C17.7471 18.1039 17.9227 18.203 18.1151 18.2247C18.1425 18.228 18.1699 18.2296 18.1981 18.2296C18.3624 18.2296 18.5235 18.1732 18.6524 18.0693L20.8125 16.3296C21.125 16.0775 21.1733 15.6216 20.9228 15.31C20.6715 14.9983 20.2149 14.9467 19.9032 15.1988Z" fill="#6B7280"/>
</svg>
