<svg width="30" height="28" viewBox="0 0 30 28" fill="none" xmlns="http://www.w3.org/2000/svg">
<path d="M9.64126 27.5036C9.77626 27.5036 9.90626 27.4486 10.0013 27.3536C10.0963 27.2586 10.1463 27.1286 10.1413 26.9936C10.1413 26.9436 10.1013 25.7886 9.34126 25.0686C9.01626 24.7636 8.62126 24.5786 8.16126 24.5286L6.88626 20.8586C7.95626 20.2736 8.77626 18.9936 9.13126 18.3536C10.8563 18.7936 12.5063 18.6236 13.7763 18.3136C14.0363 19.1886 14.4563 20.1636 14.7863 20.8636C14.9713 21.2536 15.0563 21.6886 15.0413 22.1286L14.8663 26.9936C14.8663 27.1286 14.9113 27.2636 15.0063 27.3586C15.1013 27.4536 15.2313 27.5136 15.3663 27.5136H21.2663C21.5413 27.5136 21.7663 27.2886 21.7663 27.0136C21.7663 25.7586 20.7763 25.1286 19.9963 24.8836L20.1563 21.9436C20.1613 21.8086 20.2163 21.6786 20.3013 21.5836C21.7663 19.9436 21.8363 15.9186 21.8263 14.7336C22.0663 14.6086 22.2813 14.4686 22.4813 14.3236V15.3286C22.4813 15.8617 22.693 16.3729 23.07 16.7499C23.4469 17.1268 23.9582 17.3386 24.4913 17.3386C25.0243 17.3386 25.5356 17.1268 25.9125 16.7499C26.2895 16.3729 26.5013 15.8617 26.5013 15.3286V5.2336C26.6013 5.2536 26.6663 5.2836 26.7113 5.3136C27.2763 5.6936 28.0813 5.5436 28.4963 4.9786C28.8363 4.5136 29.0113 3.9736 29.0113 3.3336C29.0063 3.2536 28.9313 2.5336 28.2813 2.0036C27.7463 1.5686 27.0063 1.4036 26.0363 1.5286C26.0213 1.5286 25.6163 1.5836 25.0413 1.0386C24.4463 0.328605 22.9213 -0.606396 21.1013 0.533604C20.6113 0.273604 19.6163 -0.121396 18.7613 0.388604C18.6413 0.463604 18.5563 0.583604 18.5263 0.723604C18.5213 0.763604 18.3513 1.6636 18.9113 2.4336C19.2413 2.8886 19.7363 3.1936 20.3863 3.3436V6.7686C20.3763 6.9886 20.1863 8.9136 17.9863 8.8036C17.9363 8.8036 16.7563 8.6636 15.8963 6.9036C15.8413 6.7736 14.5263 3.7436 12.1013 2.9536C10.6763 2.4886 9.35126 2.6436 8.36126 3.3886C7.58626 3.9736 6.86126 4.8336 6.19626 5.9486C5.89626 6.3386 4.98626 7.2636 4.10126 7.2636H4.07626C4.01626 7.2636 2.89626 7.2786 1.84626 8.4536C0.181259 10.3186 -0.363741 13.8986 0.236259 19.0936C0.236259 19.1186 0.246259 19.1436 0.251259 19.1686L2.46626 27.1386C2.52626 27.3536 2.72126 27.5036 2.94626 27.5036H9.63626H9.64126ZM20.9463 2.4286C20.3663 2.3586 19.9563 2.1636 19.7263 1.8536C19.5513 1.6186 19.5063 1.3486 19.4963 1.1586C20.0763 1.0336 20.8213 1.5286 20.8263 1.5336C21.0013 1.6586 21.2363 1.6536 21.4113 1.5286C23.0563 0.323604 24.1663 1.5536 24.2863 1.6986C24.2963 1.7136 24.3113 1.7286 24.3263 1.7436C24.8913 2.2886 25.4063 2.4686 25.7663 2.5186C25.5863 2.9686 25.4363 3.5836 25.4663 4.3436C25.1913 4.4186 24.9013 4.5286 24.5963 4.6786C24.5463 4.6986 23.3713 5.2386 23.5113 6.6836V10.5736C23.5113 10.6336 23.5263 11.5436 22.9013 12.4886L20.3863 9.0186C21.3113 8.1436 21.3863 6.8836 21.3913 6.8086V2.9386C21.3913 2.6886 21.2013 2.4736 20.9513 2.4436L20.9463 2.4286ZM8.95626 4.1886C9.93126 3.4586 11.1463 3.6936 11.7863 3.9036C12.2763 4.0636 12.7163 4.3486 13.1063 4.6886V9.6736C12.7636 9.76326 12.451 9.94251 12.2006 10.1929C11.9502 10.4434 11.7709 10.756 11.6813 11.0986H9.57126C9.4816 10.756 9.30235 10.4434 9.05192 10.1929C8.80148 9.94251 8.48889 9.76326 8.14626 9.6736V4.9486C8.41126 4.6536 8.68126 4.3936 8.95626 4.1836V4.1886ZM7.00626 6.5336L7.03626 6.4886C7.07126 6.4286 7.11126 6.3736 7.14626 6.3186V10.1186C7.14626 10.3936 7.37126 10.6186 7.64626 10.6186C8.19126 10.6186 8.63626 11.0636 8.63626 11.6086C8.63626 11.8836 8.86126 12.1086 9.13626 12.1086H12.1163C12.3913 12.1086 12.6163 11.8836 12.6163 11.6086C12.6163 11.0636 13.0613 10.6186 13.6063 10.6186C13.8813 10.6186 14.1063 10.3936 14.1063 10.1186V5.8186C14.6663 6.5936 14.9713 7.2986 14.9863 7.3236C15.0163 7.3836 15.0463 7.4386 15.0763 7.4936V12.9686H6.17626V7.3836C6.66626 6.9736 6.98126 6.5686 7.00626 6.5336ZM6.11126 20.1036C5.98126 20.1436 5.87626 20.2336 5.81126 20.3536C5.74626 20.4736 5.74126 20.6136 5.78626 20.7436L7.32126 25.1736C7.39126 25.3786 7.58626 25.5036 7.80626 25.5086C8.62126 25.4886 8.92626 26.0536 9.05126 26.5036H7.16626C7.08126 26.0886 6.89126 25.4986 6.43126 25.0636C6.11126 24.7586 5.72126 24.5786 5.26626 24.5236L3.98126 20.2836C5.35126 19.7586 6.42626 18.2186 6.90626 17.4236C7.32126 17.6736 7.73626 17.8736 8.15126 18.0336C7.71626 18.7686 6.93126 19.8436 6.10626 20.0986L6.11126 20.1036ZM15.6963 20.4336C15.4363 19.8836 14.9963 18.8936 14.7413 18.0336C15.0613 17.9286 15.3413 17.8186 15.5663 17.7236C15.7713 18.6936 16.2813 19.9136 16.7263 20.8636C16.9113 21.2536 16.9963 21.6886 16.9813 22.1286L16.8213 26.5136H15.8863L16.0413 22.1686C16.0613 21.5736 15.9413 20.9786 15.6913 20.4436L15.6963 20.4336ZM21.1113 13.9636C20.9263 14.0486 20.8113 14.2336 20.8213 14.4336C20.8713 15.7886 20.7413 19.5836 19.5563 20.9086C19.3195 21.1785 19.1804 21.5201 19.1613 21.8786L18.9813 25.2336C18.9663 25.4886 19.1513 25.7186 19.4063 25.7536C19.4513 25.7586 20.3213 25.8986 20.6463 26.4986H17.8263L17.9813 22.1536C18.0013 21.5586 17.8813 20.9636 17.6313 20.4286C16.8963 18.8686 16.4763 17.6086 16.4763 16.9686C16.4763 16.7936 16.3813 16.6286 16.2313 16.5386C16.0813 16.4486 15.8913 16.4436 15.7363 16.5286C15.6913 16.5536 11.0063 19.0536 7.02126 16.2986C6.90126 16.2186 6.75126 16.1936 6.61626 16.2236C6.47626 16.2586 6.36126 16.3536 6.29126 16.4836C5.91126 17.2336 4.62126 19.2236 3.28126 19.4436C3.21082 19.4552 3.14367 19.4818 3.08427 19.5214C3.02487 19.561 2.97458 19.6127 2.93674 19.6733C2.89891 19.7338 2.87439 19.8017 2.86482 19.8725C2.85526 19.9432 2.86086 20.0152 2.88126 20.0836L4.41626 25.1486C4.48126 25.3636 4.69126 25.5086 4.91126 25.5036C5.73126 25.4836 6.03126 26.0486 6.15626 26.4986H3.33126L1.23126 18.9336C0.541259 12.9136 1.57126 10.2936 2.56126 9.1536C3.31126 8.2886 4.05126 8.2586 4.06626 8.2586H4.10626C4.48626 8.2586 4.84626 8.1586 5.17626 8.0136V14.8436C5.17626 15.1186 5.40126 15.3436 5.67626 15.3436C5.95126 15.3436 6.17626 15.1186 6.17626 14.8436V13.9636H7.15626V14.8436C7.15626 15.1186 7.38126 15.3436 7.65626 15.3436C7.93126 15.3436 8.15626 15.1186 8.15626 14.8436V13.9636H9.13626V14.8436C9.13626 15.1186 9.36126 15.3436 9.63626 15.3436C9.91126 15.3436 10.1363 15.1186 10.1363 14.8436V13.9636H11.1163V14.8436C11.1163 15.1186 11.3413 15.3436 11.6163 15.3436C11.8913 15.3436 12.1163 15.1186 12.1163 14.8436V13.9636H13.0963V14.8436C13.0963 15.1186 13.3213 15.3436 13.5963 15.3436C13.8713 15.3436 14.0963 15.1186 14.0963 14.8436V13.9636H15.0763V14.8436C15.0763 15.1186 15.3013 15.3436 15.5763 15.3436C15.8513 15.3436 16.0763 15.1186 16.0763 14.8436V8.8486C16.9863 9.7136 17.8563 9.7936 17.9113 9.7936C18.5213 9.8286 19.0663 9.7436 19.5363 9.5436L22.2163 13.2436C21.9213 13.5036 21.5563 13.7486 21.1063 13.9536L21.1113 13.9636ZM24.4913 16.3336C23.9363 16.3336 23.4813 15.8786 23.4813 15.3236V13.4436C23.4813 13.4436 23.4763 13.4086 23.4713 13.3886C24.5413 12.0536 24.5063 10.6136 24.5063 10.5436V6.6236C24.4313 5.8736 24.9463 5.6086 25.0113 5.5736C25.1963 5.4886 25.3513 5.4236 25.5013 5.3736V15.3186C25.5013 15.8736 25.0463 16.3286 24.4913 16.3286V16.3336ZM27.2613 4.4836C27.0313 4.3286 26.7613 4.2386 26.4613 4.2186C26.4413 3.3686 26.7063 2.7836 26.8763 2.5036C27.1863 2.5336 27.4463 2.6186 27.6363 2.7686C27.9563 3.0186 28.0063 3.3736 28.0113 3.3736C28.0113 3.7536 27.9013 4.0936 27.6913 4.3836C27.5913 4.5236 27.3963 4.5686 27.2663 4.4836H27.2613Z" fill="#6B7280"/>
</svg>
