<svg width="30" height="26" viewBox="0 0 30 26" fill="none" xmlns="http://www.w3.org/2000/svg">
<path d="M23.513 0.899C23.3843 0.642667 23.034 0.523 22.777 0.649C22.1793 0.851 16.9997 2.45633 10.069 0.0306667L10.0677 0.0340001C10.0023 0.0124332 9.93412 0.000967605 9.86533 0C9.78888 0.00309577 9.71392 0.0221991 9.6453 0.0560754C9.57669 0.0899517 9.51595 0.137847 9.467 0.196667L2.19233 8.90333C2.10967 9.00198 2.06446 9.12663 2.06467 9.25533V13.3673H0.548667C0.245667 13.3673 0 13.613 0 13.916V24.5933C0 24.8963 0.245667 25.142 0.548667 25.142H28.785C29.088 25.142 29.3337 24.8963 29.3337 24.5933V9.911C29.3337 9.80367 29.3023 9.69933 29.2433 9.609L23.513 0.899ZM19.025 11.165L21.9587 15.8473L19.025 15.7407V11.165ZM19.51 9.871L28.2363 10.426V16.0753L23.284 15.8953L19.51 9.871ZM22.7903 1.79767L27.722 9.29367L18.7193 8.721L11.795 1.70133C17.3577 3.13833 21.484 2.187 22.7903 1.79767ZM3.16167 9.45467L9.92167 1.36433L17.928 9.48033V15.7213H14.9013L15.1827 12.0167C15.1899 11.9209 15.1719 11.8249 15.1305 11.7382C15.0891 11.6516 15.0257 11.5773 14.9467 11.5227C14.922 11.5057 12.5813 9.886 10.2753 7.73667L10.2387 7.64467C10.1984 7.54327 10.1288 7.45623 10.0387 7.39475C9.94854 7.33327 9.84209 7.30016 9.733 7.29967H9.72933C9.7 7.29967 9.67133 7.30233 9.64333 7.30667C9.5829 7.30166 9.52204 7.30616 9.463 7.32C9.37312 7.3427 9.29029 7.38739 9.22198 7.45006C9.15367 7.51273 9.10201 7.5914 9.07167 7.679C9.06633 7.695 8.47133 9.30933 4.71567 11.0763C4.61666 11.123 4.53388 11.1982 4.47798 11.2923C4.42208 11.3864 4.39562 11.4951 4.402 11.6043L4.63467 15.721H3.16133L3.16167 9.45467ZM5.519 11.9093C6.61167 11.3727 7.448 10.8467 8.08733 10.3627L5.855 15.7213H5.73333L5.519 11.9093ZM9.71967 9.3L12.2913 15.7213H7.04433L9.71967 9.3ZM13.473 15.7213L11.183 10.0023C12.1146 10.7856 13.0756 11.5331 14.064 12.2433L13.7997 15.7213H13.473ZM1.097 24.0447V14.4643H2.06467V16.2697C2.06467 16.5727 2.31033 16.8183 2.61333 16.8183H18.4567L22.6627 16.971L25.392 21.327C25.4333 21.3929 25.488 21.4493 25.5527 21.4924C25.6174 21.5356 25.6905 21.5645 25.7672 21.5773C25.8439 21.5901 25.9224 21.5865 25.9976 21.5666C26.0728 21.5468 26.1429 21.5113 26.2033 21.4623L27.2967 20.577C27.4096 20.4851 27.4816 20.3523 27.4968 20.2075C27.5121 20.0627 27.4693 19.9177 27.378 19.8043C27.3327 19.7482 27.2767 19.7015 27.2133 19.667C27.1499 19.6325 27.0803 19.6109 27.0085 19.6033C26.9368 19.5958 26.8642 19.6025 26.795 19.623C26.7258 19.6435 26.6614 19.6775 26.6053 19.723L25.9933 20.2187L23.9887 17.0187L28.2367 17.173V24.0443L1.097 24.0447Z" fill="#6B7280"/>
<path d="M6.19906 19.2457H5.40572C5.26021 19.2457 5.12065 19.3035 5.01776 19.4064C4.91486 19.5093 4.85706 19.6489 4.85706 19.7944C4.85706 19.9399 4.91486 20.0795 5.01776 20.1824C5.12065 20.2853 5.26021 20.3431 5.40572 20.3431H6.19906C6.34457 20.3431 6.48413 20.2853 6.58702 20.1824C6.68992 20.0795 6.74772 19.9399 6.74772 19.7944C6.74772 19.6489 6.68992 19.5093 6.58702 19.4064C6.48413 19.3035 6.34457 19.2457 6.19906 19.2457ZM13.9177 19.2457H11.1064C10.9609 19.2457 10.8213 19.3035 10.7184 19.4064C10.6155 19.5093 10.5577 19.6489 10.5577 19.7944C10.5577 19.9399 10.6155 20.0795 10.7184 20.1824C10.8213 20.2853 10.9609 20.3431 11.1064 20.3431H13.9177C14.0632 20.3431 14.2028 20.2853 14.3057 20.1824C14.4086 20.0795 14.4664 19.9399 14.4664 19.7944C14.4664 19.6489 14.4086 19.5093 14.3057 19.4064C14.2028 19.3035 14.0632 19.2457 13.9177 19.2457ZM20.2471 21.6864H18.8411C18.6955 21.6864 18.556 21.7442 18.4531 21.8471C18.3502 21.95 18.2924 22.0895 18.2924 22.2351C18.2924 22.3806 18.3502 22.5201 18.4531 22.623C18.556 22.7259 18.6955 22.7837 18.8411 22.7837H20.2471C20.3926 22.7837 20.5321 22.7259 20.635 22.623C20.7379 22.5201 20.7957 22.3806 20.7957 22.2351C20.7957 22.0895 20.7379 21.95 20.635 21.8471C20.5321 21.7442 20.3926 21.6864 20.2471 21.6864Z" fill="#6B7280"/>
</svg>
