<svg width="26" height="29" viewBox="0 0 26 29" fill="none" xmlns="http://www.w3.org/2000/svg">
<path d="M9.50002 17H3.17214L2.49464 12.4268L1.50539 12.5733L2.1612 17H0.500015C0.432442 17 0.365571 17.0137 0.303439 17.0403C0.241307 17.0668 0.185204 17.1057 0.138519 17.1546C0.0918343 17.2034 0.055536 17.2612 0.0318165 17.3245C0.00809705 17.3878 -0.00255108 17.4552 0.000515018 17.5227L0.500515 28.5227C0.506354 28.6512 0.561531 28.7726 0.654566 28.8615C0.747602 28.9504 0.871332 29 1.00001 29H9.00002C9.1287 29 9.25243 28.9504 9.34546 28.8615C9.4385 28.7726 9.49368 28.6512 9.49952 28.5227L9.99952 17.5227C10.0026 17.4552 9.99193 17.3878 9.96821 17.3245C9.94449 17.2612 9.9082 17.2034 9.86151 17.1546C9.81483 17.1057 9.75872 17.0668 9.69659 17.0403C9.63446 17.0137 9.56759 17 9.50002 17ZM2.30933 18L2.60983 20.0282C2.08381 20.088 1.57978 20.273 1.13995 20.5676L1.02326 18H2.30933ZM8.5222 28H1.47783L1.19251 21.7233C1.28722 21.6646 1.38098 21.6044 1.47376 21.5428C1.84789 21.2967 2.18001 21.0796 2.75639 21.0178L3.50533 26.073L4.49458 25.9265L3.77583 21.0759C4.15976 21.1719 4.42895 21.3481 4.72445 21.5425C5.22833 21.8738 5.79945 22.2498 6.89945 22.2498C7.33555 22.257 7.76922 22.1833 8.17845 22.0324L7.8217 21.0983C7.52642 21.206 7.2136 21.2574 6.89939 21.25C6.09939 21.25 5.71689 20.9985 5.27439 20.7073C4.85708 20.4328 4.39277 20.1286 3.62145 20.0319L3.32033 18H8.97658L8.5222 28Z" fill="#6B7280"/>
<path d="M25.875 14.7887L25.1857 8.23825C25.1222 7.62345 24.8327 7.05412 24.3734 6.64059C23.914 6.22706 23.3175 5.99879 22.6994 6H20.0947L19.999 4.46875C19.9911 4.3418 19.935 4.22266 19.8423 4.13557C19.7496 4.04849 19.6272 4.00001 19.5 4H19C18.9994 3.46975 18.7885 2.96139 18.4136 2.58644C18.0386 2.2115 17.5303 2.0006 17 2H15.5V1.5C15.5 1.10218 15.342 0.720644 15.0607 0.43934C14.7794 0.158035 14.3978 0 14 0C13.6022 0 13.2206 0.158035 12.9393 0.43934C12.658 0.720644 12.5 1.10218 12.5 1.5V2H11C10.4697 2.0006 9.96139 2.2115 9.58644 2.58644C9.2115 2.96139 9.0006 3.46975 9 4C8.46975 4.0006 7.96139 4.2115 7.58644 4.58644C7.2115 4.96139 7.0006 5.46975 7 6C7 6.06566 7.01293 6.13068 7.03805 6.19135C7.06318 6.25201 7.10001 6.30713 7.14644 6.35356L8.47994 7.68706L7.69275 15.9526L8.68825 16.0474L8.81481 14.7185C9.58981 14.6226 10.0562 14.3176 10.474 14.0427C10.8977 13.7639 11.2672 13.5222 12 13.502V22.5C12 23.0304 12.2107 23.5391 12.5858 23.9142C12.9609 24.2893 13.4696 24.5 14 24.5C14.5304 24.5 15.0391 24.2893 15.4142 23.9142C15.7893 23.5391 16 23.0304 16 22.5V14.7478C17.0331 14.7254 17.5858 14.3639 18.0739 14.043C18.2703 13.9051 18.4788 13.7852 18.6968 13.6847L18.303 12.7654C18.0303 12.8883 17.7696 13.0364 17.5242 13.2075C17.1006 13.486 16.7314 13.7276 15.9998 13.748V7C16.53 6.9994 17.0384 6.7885 17.4133 6.41356C17.7882 6.03861 17.9992 5.53025 17.9998 5H19.03L20.3679 26.4062C20.3807 26.6107 20.3515 26.8156 20.2821 27.0084C20.2127 27.2011 20.1045 27.3776 19.9643 27.5269C19.824 27.6762 19.6547 27.7952 19.4667 27.8766C19.2787 27.958 19.076 28 18.8711 28H10.5V29H18.8711C19.2126 29 19.5504 28.93 19.8637 28.7945C20.1771 28.6589 20.4594 28.4606 20.6931 28.2117C20.9269 27.9629 21.1072 27.6688 21.223 27.3476C21.3388 27.0264 21.3875 26.6848 21.3662 26.3441L20.3906 10.7338L20.8228 10.5485C20.9236 10.5053 21.0327 10.4847 21.1424 10.4882C21.2521 10.4918 21.3597 10.5194 21.4576 10.569C21.5554 10.6187 21.6412 10.6892 21.7088 10.7756C21.7765 10.862 21.8243 10.9623 21.849 11.0692L22.825 15.2992C22.914 15.6833 23.1462 16.019 23.4741 16.2379C23.802 16.4568 24.2011 16.5425 24.5899 16.4774C24.9788 16.4123 25.3282 16.2013 25.567 15.8876C25.8058 15.5738 25.9159 15.1808 25.875 14.7887ZM13.5 1.5C13.5 1.36739 13.5527 1.24021 13.6464 1.14645C13.7402 1.05268 13.8674 1 14 1C14.1326 1 14.2598 1.05268 14.3536 1.14645C14.4473 1.24021 14.5 1.36739 14.5 1.5V2H13.5V1.5ZM11 3H17C17.2651 3.00031 17.5193 3.10577 17.7068 3.29324C17.8942 3.48071 17.9997 3.73488 18 4H10C10.0003 3.73488 10.1058 3.48071 10.2932 3.29324C10.4807 3.10577 10.7349 3.00031 11 3ZM9.92444 13.2072C9.61263 13.4124 9.33069 13.5969 8.91288 13.6885L9.49775 7.54737C9.50473 7.47405 9.49543 7.40009 9.4705 7.33078C9.44558 7.26147 9.40564 7.19852 9.35356 7.14644L8.01794 5.81081C8.06221 5.58275 8.18438 5.37716 8.36353 5.22925C8.54268 5.08134 8.76768 5.00029 9 5H10C10.0006 5.53025 10.2115 6.03861 10.5864 6.41356C10.9614 6.7885 11.4697 6.9994 12 7V12.5021C10.9657 12.5243 10.4125 12.886 9.92444 13.2072ZM14 23.5C13.7349 23.4997 13.4807 23.3942 13.2932 23.2068C13.1058 23.0193 13.0003 22.7651 13 22.5V13.6452C13.2564 13.7487 13.4996 13.8821 13.7246 14.0427C14.0691 14.2694 14.4453 14.5165 15 14.6503V22.5C14.9997 22.7651 14.8942 23.0193 14.7068 23.2068C14.5193 23.3942 14.2651 23.4997 14 23.5ZM16 6H15.5C15.3674 6 15.2402 6.05268 15.1464 6.14645C15.0527 6.24021 15 6.36739 15 6.5V13.6053C14.7432 13.5018 14.4996 13.3682 14.2743 13.2073C13.9299 12.9808 13.5541 12.7339 13 12.6V6.5C13 6.36739 12.9473 6.24021 12.8536 6.14645C12.7598 6.05268 12.6326 6 12.5 6H12C11.7349 5.99969 11.4807 5.89423 11.2932 5.70676C11.1058 5.51929 11.0003 5.26512 11 5H17C16.9997 5.26512 16.8942 5.51929 16.7068 5.70676C16.5193 5.89423 16.2651 5.99969 16 6ZM22.8234 10.8444C22.7658 10.5949 22.6542 10.361 22.4963 10.1594C22.3385 9.95771 22.1384 9.79314 21.91 9.67727C21.6817 9.5614 21.4307 9.49706 21.1747 9.48879C20.9188 9.48051 20.6642 9.5285 20.4288 9.62938L20.3244 9.67419L20.1572 7H22.6994C23.0703 6.99926 23.4282 7.13622 23.7038 7.38434C23.9794 7.63245 24.1531 7.97405 24.1912 8.34294L24.7341 13.5H23.4362L22.8234 10.8444ZM24.7428 15.3183C24.6756 15.3929 24.5892 15.4477 24.493 15.4767C24.3968 15.5057 24.2945 15.5077 24.1972 15.4826C24.0999 15.4575 24.0114 15.4061 23.9413 15.3342C23.8712 15.2622 23.8221 15.1724 23.7995 15.0745L23.6669 14.5H24.8393L24.8808 14.8934C24.8892 14.9699 24.8813 15.0474 24.8575 15.1207C24.8337 15.1939 24.7946 15.2613 24.7428 15.3183Z" fill="#6B7280"/>
</svg>
