<svg width="16" height="16" viewBox="0 0 16 16" fill="none" xmlns="http://www.w3.org/2000/svg">
<path d="M2.06504 8.93777V0.665039M2.06504 8.93777C2.43634 8.93777 2.79244 9.07186 3.05499 9.31054C3.31754 9.54922 3.46504 9.87295 3.46504 10.2105C3.46504 10.548 3.31754 10.8718 3.05499 11.1104C2.79244 11.3491 2.43634 11.4832 2.06504 11.4832M2.06504 8.93777C1.69374 8.93777 1.33764 9.07186 1.07509 9.31054C0.812538 9.54922 0.665039 9.87295 0.665039 10.2105C0.665039 10.548 0.812538 10.8718 1.07509 11.1104C1.33764 11.3491 1.69374 11.4832 2.06504 11.4832M2.06504 11.4832V14.665M13.265 8.93777V0.665039M13.265 8.93777C13.6363 8.93777 13.9924 9.07186 14.255 9.31054C14.5175 9.54922 14.665 9.87295 14.665 10.2105C14.665 10.548 14.5175 10.8718 14.255 11.1104C13.9924 11.3491 13.6363 11.4832 13.265 11.4832M13.265 8.93777C12.8937 8.93777 12.5376 9.07186 12.2751 9.31054C12.0125 9.54922 11.865 9.87295 11.865 10.2105C11.865 10.548 12.0125 10.8718 12.2751 11.1104C12.5376 11.3491 12.8937 11.4832 13.265 11.4832M13.265 11.4832V14.665M7.66504 3.84686V0.665039M7.66504 3.84686C8.03634 3.84686 8.39244 3.98095 8.65499 4.21963C8.91754 4.45831 9.06504 4.78204 9.06504 5.11958C9.06504 5.45713 8.91754 5.78086 8.65499 6.01954C8.39244 6.25822 8.03634 6.39231 7.66504 6.39231M7.66504 3.84686C7.29374 3.84686 6.93764 3.98095 6.67509 4.21963C6.41254 4.45831 6.26504 4.78204 6.26504 5.11958C6.26504 5.45713 6.41254 5.78086 6.67509 6.01954C6.93764 6.25822 7.29374 6.39231 7.66504 6.39231M7.66504 6.39231V14.665" stroke="#6B7280" stroke-width="1.33" stroke-linecap="round" stroke-linejoin="round"/>
</svg>
