<svg width="24" height="24" viewBox="0 0 24 24" fill="none" xmlns="http://www.w3.org/2000/svg">
<path d="M12 0C5.38322 0 0 5.38314 0 11.9999C0 18.6167 5.38322 24 12 24C18.6168 24 24 18.6167 24 11.9999C24 5.38314 18.6169 0 12 0ZM12 22.614C6.14745 22.614 1.386 17.8525 1.386 11.9999C1.386 6.14741 6.14745 1.386 12 1.386C17.8526 1.386 22.614 6.14741 22.614 11.9999C22.614 17.8525 17.8526 22.614 12 22.614Z" fill="#9333EA"/>
<path d="M18.6067 5.67585C18.4254 5.33864 18.0052 5.2124 17.6681 5.39362L9.86823 9.58766C9.7485 9.65205 9.65034 9.75017 9.58599 9.86993L5.39364 17.6681C5.24532 17.944 5.30309 18.2755 5.51375 18.4862C5.56046 18.533 5.6147 18.5737 5.67599 18.6066C5.88434 18.7186 6.12446 18.7128 6.32023 18.6126L6.32034 18.6128L6.32328 18.6112C6.32611 18.6098 6.32889 18.6082 6.33168 18.6067L14.1354 14.4157C14.2552 14.3514 14.3533 14.2533 14.4178 14.1335L18.5933 6.35464C18.6025 6.33891 18.6112 6.32303 18.619 6.30672L18.6247 6.29625L18.624 6.29601C18.7127 6.10476 18.7141 5.87581 18.6067 5.67585ZM7.70207 16.3013L10.3661 11.346L12.657 13.637L7.70207 16.3013ZM13.6376 12.6574L11.3466 10.3664L16.3016 7.70209" fill="#9333EA"/>
</svg>
