<svg width="32" height="25" viewBox="0 0 32 25" fill="none" xmlns="http://www.w3.org/2000/svg">
<path d="M28.4013 7.05562C28.6471 6.46214 28.3653 5.78175 27.7718 5.53592C27.1783 5.2901 26.4979 5.57192 26.2521 6.1654C26.0063 6.75888 26.2881 7.43927 26.8816 7.6851C27.4751 7.93093 28.1555 7.6491 28.4013 7.05562Z" stroke="#6B7280" stroke-width="1.17188" stroke-miterlimit="10" stroke-linecap="round" stroke-linejoin="round"/>
<path d="M23.1225 12.4576V6.2445M12.6566 0.585938V6.61794M15.4596 6.61794V0.585938M18.2624 5.44881V6.12887C18.2624 6.1931 18.2497 6.25669 18.2252 6.31602C18.2006 6.37535 18.1646 6.42926 18.1191 6.47467C18.0737 6.52008 18.0198 6.5561 17.9605 6.58067C17.9011 6.60524 17.8375 6.61788 17.7733 6.61787H9.85352V1.075C9.85352 0.945293 9.90504 0.820898 9.99676 0.729181C10.0885 0.637464 10.2129 0.585938 10.3426 0.585938H17.7733C17.903 0.585938 18.0274 0.637464 18.1191 0.729181C18.2109 0.820898 18.2624 0.945293 18.2624 1.075V3.26131M9.8537 11.4264V1.91888M18.0687 19.6414V16.7514M28.1762 16.752V20.2782C28.1762 21.0301 27.5668 21.6395 26.815 21.6395H20.0668M31.0421 9.62731H23.1223V4.08431C23.1223 3.95461 23.1739 3.83021 23.2656 3.73849C23.3573 3.64678 23.4817 3.59525 23.6114 3.59525H31.0421C31.1718 3.59525 31.2962 3.64678 31.388 3.73849C31.4797 3.83021 31.5312 3.95461 31.5312 4.08431V9.13825C31.5312 9.26796 31.4797 9.39235 31.388 9.48407C31.2962 9.57579 31.1718 9.62731 31.0421 9.62731Z" stroke="#6B7280" stroke-width="1.17188" stroke-miterlimit="10" stroke-linecap="round" stroke-linejoin="round"/>
<path d="M24.9412 16.4038C26.0993 16.4688 27.2575 16.5982 28.415 16.7901C28.8543 16.8632 29.2531 16.5226 29.2531 16.0776V15.3163C29.2531 14.4332 28.7025 13.6451 27.8743 13.3382C26.8962 12.9757 25.9187 12.725 24.9412 12.5863M24.9412 12.5863C23.7348 12.4144 22.5101 12.4144 21.3037 12.5863M24.9412 12.5863V21.6395M21.3037 12.5863C20.3256 12.725 19.3475 12.9757 18.37 13.3382C17.5425 13.6451 16.9918 14.4332 16.9918 15.3163V16.0776C16.9918 16.5226 17.3906 16.8632 17.8293 16.7901C18.9875 16.5982 20.1456 16.4688 21.3037 16.4038M21.3037 12.5863V21.6395M9.27935 10.8518C5.89579 14.2353 3.80304 18.9097 3.80304 24.073M9.27935 10.8518L7.45272 9.02508C7.15141 8.72383 6.6611 8.73458 6.3706 9.04627C2.86647 12.806 0.660973 17.7927 0.469223 23.291C0.454348 23.7175 0.792223 24.073 1.21904 24.073H3.80304M9.27935 10.8518L21.2337 22.8061C21.7012 23.2736 21.3701 24.073 20.709 24.073H8.83691M3.80304 24.073H6.64941" stroke="#6B7280" stroke-width="1.17188" stroke-miterlimit="10" stroke-linecap="round" stroke-linejoin="round"/>
<path d="M10.2598 20.2902C10.6921 19.2465 10.1965 18.05 9.1529 17.6177C8.10925 17.1855 6.91278 17.6811 6.48049 18.7247C6.04819 19.7683 6.54379 20.9648 7.58743 21.3971C8.63107 21.8294 9.82755 21.3338 10.2598 20.2902Z" stroke="#6B7280" stroke-width="1.17188" stroke-miterlimit="10" stroke-linecap="round" stroke-linejoin="round"/>
<path d="M13.9015 21.5609C12.7719 21.5609 11.8561 22.4767 11.8561 23.6063C11.8561 23.7669 11.8752 23.9231 11.9102 24.0731H15.8927C15.9277 23.9231 15.9469 23.767 15.9469 23.6063C15.9469 22.4767 15.0311 21.5609 13.9015 21.5609ZM11.1356 15.4163C11.1356 16.5459 12.0514 17.4617 13.181 17.4617C13.9156 17.4617 14.5596 17.0742 14.9202 16.4926L12.1047 13.6771C11.5232 14.0378 11.1356 14.6817 11.1356 15.4163Z" stroke="#6B7280" stroke-width="1.17188" stroke-miterlimit="10" stroke-linecap="round" stroke-linejoin="round"/>
</svg>
