<svg width="31" height="31" viewBox="0 0 31 31" fill="none" xmlns="http://www.w3.org/2000/svg">
<path d="M10.9955 17.0545C10.9861 16.5533 10.7827 16.0752 10.428 15.721L9 14.293L7.57199 15.721C7.2215 16.0718 7.01892 16.5437 7.006 17.0395C6.50588 17.0517 6.02913 17.2537 5.6725 17.6045L4.245 19.0325L5.673 20.4605C6.02335 20.8101 6.49421 21.0124 6.989 21.026C6.99857 21.5273 7.20196 22.0054 7.5565 22.36L8.9845 23.7875L10.4125 22.3595C10.7621 22.0091 10.9645 21.5383 10.978 21.0435C11.4792 21.0341 11.9572 20.8306 12.3115 20.476L13.7395 19.048L12.312 17.6205C11.9614 17.2707 11.4905 17.0683 10.9955 17.0545ZM8 19C8 18.4485 8.4485 18 9 18C9.5515 18 10 18.4485 10 19C10 19.5515 9.5515 20 9 20C8.4485 20 8 19.5515 8 19ZM8.279 16.428L9 15.707L9.72099 16.428C9.89799 16.6055 10 16.851 10 17.102C10 17.1585 9.9935 17.2145 9.984 17.2695C9.68521 17.0951 9.34592 17.0022 9 17C8.65367 17.002 8.31398 17.0952 8.015 17.27C7.98858 17.1187 7.99877 16.9634 8.0447 16.8169C8.09063 16.6704 8.17097 16.537 8.279 16.428ZM5.6585 19.032L6.379 18.3115C6.6055 18.085 6.936 18.0005 7.244 18.062C7.08617 18.3496 7.00232 18.6719 7 19C7 19.364 7.105 19.701 7.276 19.9955C6.962 20.0665 6.614 19.987 6.3795 19.753L5.6585 19.032ZM9.705 21.653L8.984 22.3735L8.2635 21.653C8.15044 21.5404 8.06765 21.401 8.02281 21.2479C7.97797 21.0948 7.97253 20.9328 8.007 20.777C8.023 20.768 8.04049 20.762 8.05599 20.7525C8.34508 20.9125 8.6696 20.9975 9 21C9.3465 21 9.66749 20.9035 9.95199 20.748C9.97099 20.823 9.984 20.9 9.984 20.979C9.984 21.2335 9.88499 21.4725 9.705 21.653ZM11.604 19.7695C11.3765 19.997 11.036 20.0815 10.724 20.0145L10.719 20.0045C10.9009 19.7008 10.9979 19.3539 11 19C11 18.664 10.9085 18.3515 10.7615 18.073C11.0615 18.0225 11.384 18.1075 11.6045 18.3275L12.3255 19.048L11.604 19.7695Z" fill="#6B7280"/>
<path d="M28.5 7.5C27.1215 7.5 26 8.6215 26 10V12.5H19.5C18.924 12.5009 18.3659 12.7003 17.9198 13.0646C17.4736 13.4289 17.1666 13.9358 17.0505 14.5H17V8C17 6.897 16.103 6 15 6C14.634 6 14.2955 6.106 14 6.278V4C14 2.897 13.103 2 12 2C11.634 2 11.2955 2.106 11 2.278V2C11 0.897 10.103 0 9 0C7.897 0 7 0.897 7 2V2.278C6.69733 2.09804 6.35213 2.00207 6 2C4.897 2 4 2.897 4 4V10.055C3.67489 9.72107 3.28617 9.45567 2.85678 9.27446C2.42739 9.09326 1.96605 8.99994 1.5 9C0.673 9 0 9.673 0 10.5C0 11.526 0.0815 13.3975 0.2415 16.0635C0.391702 18.666 1.35675 21.1553 3 23.179V31H15V23.1495C16.0985 21.4528 16.7658 19.5134 16.944 17.5H17.0505C17.1665 18.0642 17.4735 18.5712 17.9197 18.9355C18.3659 19.2998 18.924 19.4992 19.5 19.5H27.5C29.43 19.5 31 17.93 31 16V10C31 8.6215 29.8785 7.5 28.5 7.5ZM17 15.5V16.5H14.618L13.0655 15.724C13.0415 15.7123 13.0222 15.6927 13.0107 15.6686C12.9993 15.6444 12.9964 15.6171 13.0025 15.5911C13.0086 15.5651 13.0233 15.5419 13.0443 15.5253C13.0653 15.5088 13.0913 15.4999 13.118 15.5H17ZM14.084 22.7225L14 22.8485V30H8.2405C8.43281 29.6631 8.70169 29.3761 9.02542 29.1624C9.34914 28.9486 9.71863 28.814 10.104 28.7695L10.888 28.6825C11.4689 28.6184 12.0056 28.3422 12.3954 27.9068C12.7851 27.4714 13.0004 26.9074 13 26.323C12.9993 25.7071 12.7544 25.1166 12.3189 24.6811C11.8834 24.2456 11.2929 24.0007 10.677 24H10.5C9.673 24 9 24.673 9 25.5C9 26.327 9.673 27 10.5 27H11V26H10.5C10.2245 26 10 25.7755 10 25.5C10 25.2245 10.2245 25 10.5 25H10.677C11.0278 25.0004 11.364 25.1399 11.6121 25.3879C11.8601 25.636 11.9996 25.9722 12 26.323C12.0003 26.6612 11.8758 26.9876 11.6503 27.2396C11.4247 27.4915 11.1141 27.6514 10.778 27.6885L9.994 27.7755C8.6955 27.9195 7.5975 28.7965 7.142 30H5.638C6.00856 28.7619 6.76653 27.6753 7.8005 26.9L7.2005 26.1C5.91567 27.0653 5.00049 28.4418 4.6075 30H4V22.819L3.884 22.68C2.30825 20.7963 1.38098 18.4553 1.2395 16.0035C1.083 13.395 1 11.4915 1 10.5C1 10.2245 1.2245 10 1.5 10C2.8785 10 4 11.1215 4 12.5V16.5H5V4C5 3.4485 5.4485 3 6 3C6.5515 3 7 3.4485 7 4V13.5H8V2C8 1.4485 8.4485 1 9 1C9.5515 1 10 1.4485 10 2V13.5H11V4C11 3.4485 11.4485 3 12 3C12.5515 3 13 3.4485 13 4V13.5H14V8C14 7.4485 14.4485 7 15 7C15.5515 7 16 7.4485 16 8V14.5H13.118C12.8216 14.5003 12.5374 14.6181 12.3277 14.8277C12.1181 15.0374 12.0003 15.3216 12 15.618C12 16.044 12.237 16.4275 12.618 16.618L14.171 17.3945C14.309 17.4635 14.4635 17.5 14.618 17.5H15.941C15.7605 19.367 15.1227 21.1607 14.084 22.7225ZM28.5 8.5C29.327 8.5 30 9.173 30 10V14.013C29.581 13.6955 29.065 13.5 28.5 13.5C27.935 13.5 27.419 13.6955 27 14.013V10C27 9.173 27.673 8.5 28.5 8.5ZM18 17V15C18 14.173 18.673 13.5 19.5 13.5H20V18.5H19.5C18.673 18.5 18 17.827 18 17ZM27.5 18.5H21V13.5H26V16C26 16.827 26.673 17.5 27.5 17.5C28.327 17.5 29 16.827 29 16V15.5H28V16C28 16.2755 27.7755 16.5 27.5 16.5C27.2245 16.5 27 16.2755 27 16C27 15.173 27.673 14.5 28.5 14.5C29.327 14.5 30 15.173 30 16C30 17.3785 28.8785 18.5 27.5 18.5Z" fill="#6B7280"/>
</svg>
