<svg width="23" height="23" viewBox="0 0 23 23" fill="none" xmlns="http://www.w3.org/2000/svg">
<path d="M11.5 0C5.15919 0 0 5.15919 0 11.5C0 13.7109 0.619563 15.8341 1.794 17.664L0.05175 22.0139C-0.054625 22.2813 0.00718749 22.586 0.211313 22.7901C0.347875 22.9267 0.531875 23 0.71875 23C0.809313 23 0.898438 22.9828 0.986125 22.9483L5.336 21.206C7.16594 22.3804 9.28913 23 11.5 23C17.8408 23 23 17.8408 23 11.5C23 5.15919 17.8408 0 11.5 0ZM11.5 21.5625C9.45013 21.5625 7.48794 20.9559 5.82763 19.8073C5.70688 19.7225 5.56313 19.6794 5.41938 19.6794C5.32881 19.6794 5.23825 19.6966 5.152 19.7311L2.00963 20.9904L3.26888 17.848C3.358 17.6238 3.32925 17.3693 3.19269 17.1724C2.04413 15.5121 1.4375 13.5499 1.4375 11.5C1.4375 5.95125 5.95125 1.4375 11.5 1.4375C17.0488 1.4375 21.5625 5.95125 21.5625 11.5C21.5625 17.0488 17.0488 21.5625 11.5 21.5625Z" fill="#6B7280"/>
</svg>
