<svg width="21" height="24" viewBox="0 0 21 24" fill="none" xmlns="http://www.w3.org/2000/svg">
<path d="M10.4259 12.8372C6.88732 12.8372 4.00732 9.95721 4.00732 6.4186C4.00732 2.88 6.88732 0 10.4259 0C13.9645 0 16.8445 2.88 16.8445 6.4186C16.8445 9.95721 13.9645 12.8372 10.4259 12.8372ZM10.4259 1.67442C7.81384 1.67442 5.68174 3.80651 5.68174 6.4186C5.68174 9.0307 7.81384 11.1628 10.4259 11.1628C13.038 11.1628 15.1701 9.0307 15.1701 6.4186C15.1701 3.80651 13.038 1.67442 10.4259 1.67442Z" fill="#6B7280"/>
<path d="M20.0148 24C19.5571 24 19.1776 23.6205 19.1776 23.1628C19.1776 19.3117 15.2484 16.1861 10.4261 16.1861C5.60371 16.1861 1.67442 19.3117 1.67442 23.1628C1.67442 23.6205 1.29488 24 0.837209 24C0.379535 24 0 23.6205 0 23.1628C0 18.3963 4.6772 14.5117 10.4261 14.5117C16.1749 14.5117 20.852 18.3963 20.852 23.1628C20.852 23.6205 20.4725 24 20.0148 24Z" fill="#6B7280"/>
</svg>
