<svg width="26" height="22" viewBox="0 0 26 22" fill="none" xmlns="http://www.w3.org/2000/svg">
<path d="M25.9572 7.13776C25.8161 5.19979 24.9646 3.4148 23.5593 2.11148C22.1799 0.832031 20.3614 0.0846298 18.439 0.00685003C16.5221 -0.0702986 14.6472 0.509289 12.9892 1.68813C11.3313 0.509289 9.45628 -0.0705616 7.53945 0.00685003C5.61705 0.0846298 3.79861 0.832031 2.41914 2.11148C1.0139 3.41475 0.162316 5.19979 0.0213239 7.13776C-0.13555 9.29361 0.575459 11.6186 2.07746 13.8615C4.57877 17.5964 8.87386 19.9855 12.7034 21.9315C12.7932 21.9772 12.8912 22 12.9893 22C13.0874 22 13.1853 21.9772 13.2752 21.9315C17.1047 19.9855 21.3998 17.5965 23.9011 13.8615C25.403 11.6186 26.114 9.29361 25.9572 7.13776ZM22.8523 13.1591C20.5802 16.5519 16.6024 18.8136 12.9892 20.6606C9.37598 18.8136 5.39822 16.5519 3.1261 13.1591C0.0857459 8.61921 1.21074 4.95357 3.27729 3.03689C4.41454 1.98221 6.06937 1.2529 7.9 1.2529C9.41121 1.2529 11.0424 1.75029 12.5996 2.97226C12.8284 3.15175 13.1501 3.15175 13.3788 2.97226C16.8223 0.27006 20.6251 1.11149 22.7011 3.03689C24.7677 4.95357 25.8927 8.61926 22.8523 13.1591Z" fill="#6B7280"/>
</svg>
